#!OML:ASF F:\VICON\USERDATA\INSTALL\rory3\rory3.ASF
:FULLY-SPECIFIED
:DEGREES
477
root 11.9138 17.7738 13.327 -3.24487 181.778 1.53516
lowerback 13.4765 1.62206 -0.713312
upperback 0.869952 1.89932 -0.0989956
thorax -6.66236 0.887445 -0.0550899
lowerneck -18.3057 -5.09016 -12.566
upperneck 29.5868 -8.24198 9.74051
head 14.1021 -4.31644 4.48057
rclavicle 1.17283e-014 -4.37326e-015
rhumerus -38.8079 -19.407 -71.7688
rradius 36.9438
rwrist 3.76877
rhand -19.6174 9.9704
rfingers 7.12502
rthumb 6.70916 -19.9033
lclavicle 1.17283e-014 -4.37326e-015
lhumerus -36.2642 9.61179 74.1161
lradius 35.9896
lwrist -5.69844
lhand -18.2412 25.1224
lfingers 7.12502
lthumb 8.03753 54.9495
rfemur -4.02709 -0.843947 15.6717
rtibia 27.2921
rfoot -21.3408 7.364
rtoes -14.8832
lfemur -8.63428 -6.4807 -10.6243
ltibia 36.7133
lfoot -17.945 -15.2056
ltoes -13.4578
478
root 11.978 17.7624 13.3274 -3.26381 181.843 1.42193
lowerback 13.4475 1.5699 -0.546257
upperback 0.884524 1.85365 -0.123373
thorax -6.62394 0.859811 -0.165313
lowerneck -18.3489 -5.06688 -12.5024
upperneck 29.6247 -8.186 9.62645
head 14.1103 -4.29815 4.43323
rclavicle 1.76421e-015 -2.78299e-015
rhumerus -38.8091 -19.6781 -71.271
rradius 36.8093
rwrist 3.66804
rhand -19.5291 10.2017
rfingers 7.12502
rthumb 6.7944 -19.6693
lclavicle 1.76421e-015 -2.78299e-015
lhumerus -36.3823 9.22124 74.5882
lradius 36.2412
lwrist -5.67115
lhand -18.4395 24.8726
lfingers 7.12502
lthumb 7.84613 54.707
rfemur -4.29349 -0.842864 15.7939
rtibia 27.8819
rfoot -21.6 7.27365
rtoes -14.66
lfemur -8.86575 -5.95016 -11.785
ltibia 37.3383
lfoot -18.5217 -17.2798
ltoes -11.4705
479
root 12.0422 17.7505 13.3195 -3.31211 181.859 1.15939
lowerback 13.3249 1.54667 -0.574193
upperback 0.947536 1.81485 -0.154399
thorax -6.48818 0.840337 -0.170567
lowerneck -18.4128 -5.04006 -12.4421
upperneck 29.6561 -8.08283 9.42769
head 14.1092 -4.26722 4.36011
rclavicle -7.33018e-015 -5.96354e-016
rhumerus -38.8173 -19.8196 -70.7594
rradius 36.7343
rwrist 3.52677
rhand -19.3361 10.257
rfingers 7.12502
rthumb 6.98074 -19.6079
lclavicle -7.33018e-015 -5.96354e-016
lhumerus -36.5522 8.65901 75.184
lradius 36.6535
lwrist -5.17622
lhand -18.406 24.3854
lfingers 7.12502
lthumb 7.8785 54.2186
rfemur -4.51235 -0.66779 15.7658
rtibia 28.4909
rfoot -21.8134 7.11419
rtoes -13.9613
lfemur -8.9433 -5.31339 -13.1508
ltibia 37.8339
lfoot -19.0777 -18.8918
ltoes -10.9154
480
root 12.1071 17.7405 13.3139 -3.35665 181.849 1.00554
lowerback 13.2098 1.52275 -0.507085
upperback 1.00743 1.79154 -0.157485
thorax -6.35802 0.826274 -0.203231
lowerneck -18.484 -5.06212 -12.4039
upperneck 29.6849 -8.04111 9.21962
head 14.1189 -4.2659 4.27512
rclavicle -1.26725e-015 5.96354e-015
rhumerus -38.7846 -19.8543 -70.3422
rradius 36.7426
rwrist 3.17996
rhand -19.3188 10.2329
rfingers 7.12502
rthumb 6.99742 -19.6314
lclavicle -1.26725e-015 5.96354e-015
lhumerus -36.6764 8.23113 75.7147
lradius 36.97
lwrist -4.92507
lhand -17.9942 24.2042
lfingers 7.12502
lthumb 8.27594 54.0221
rfemur -4.75697 -0.483187 15.8831
rtibia 29.1262
rfoot -22.0113 6.9303
rtoes -13.0609
lfemur -8.96789 -4.50098 -14.3901
ltibia 38.1941
lfoot -19.8057 -20.0313
ltoes -11.994
481
root 12.1713 17.7323 13.3114 -3.37228 181.816 0.970474
lowerback 13.1354 1.50777 -0.3505
upperback 1.03538 1.79633 -0.134317
thorax -6.28258 0.824664 -0.265582
lowerneck -18.4841 -5.06776 -12.4536
upperneck 29.6645 -8.02918 9.22601
head 14.1113 -4.26402 4.28827
rclavicle 1.6114e-014 -2.18663e-015
rhumerus -38.7995 -20.042 -69.8893
rradius 36.7978
rwrist 3.00852
rhand -19.1993 10.3183
rfingers 7.12502
rthumb 7.1128 -19.5422
lclavicle 1.6114e-014 -2.18663e-015
lhumerus -36.6862 8.09251 76.0863
lradius 37.1586
lwrist -5.50834
lhand -17.4442 24.9486
lfingers 7.12502
lthumb 8.80675 54.7449
rfemur -5.09117 -0.491453 16.1106
rtibia 29.7851
rfoot -22.1749 6.94615
rtoes -12.0589
lfemur -9.00183 -3.48803 -15.4597
ltibia 38.423
lfoot -20.3204 -21.2372
ltoes -11.589
482
root 12.2368 17.7231 13.3107 -3.287 181.75 0.899241
lowerback 12.9761 1.52814 -0.292892
upperback 1.0364 1.8377 -0.0996009
thorax -6.192 0.845388 -0.264973
lowerneck -18.4958 -5.08436 -12.551
upperneck 29.6384 -8.03051 9.28157
head 14.1108 -4.26607 4.32747
rclavicle -5.1684e-015 -1.98785e-015
rhumerus -38.8233 -20.2311 -69.402
rradius 36.7279
rwrist 3.02034
rhand -19.2017 10.1987
rfingers 7.12502
rthumb 7.1105 -19.6618
lclavicle -5.1684e-015 -1.98785e-015
lhumerus -36.6883 7.86009 76.5482
lradius 37.2333
lwrist -5.43296
lhand -18.117 24.5966
lfingers 7.12502
lthumb 8.1574 54.4191
rfemur -5.54885 -0.443035 16.2995
rtibia 30.4368
rfoot -22.2979 6.95388
rtoes -11.1443
lfemur -9.09726 -2.33812 -16.5201
ltibia 38.5561
lfoot -20.4365 -22.4281
ltoes -10.5606
483
root 12.3021 17.7126 13.3071 -3.21766 181.753 0.779406
lowerback 12.8137 1.54637 -0.289455
upperback 1.01067 1.86837 -0.0914337
thorax -6.12887 0.862741 -0.260133
lowerneck -18.4996 -5.10096 -12.5419
upperneck 29.719 -8.06055 9.22654
head 14.1479 -4.29004 4.29878
rclavicle 6.36111e-015 -2.18663e-015
rhumerus -38.9508 -20.1729 -68.9943
rradius 36.6763
rwrist 2.70695
rhand -19.1764 10.0186
rfingers 7.12502
rthumb 7.13489 -19.8411
lclavicle 6.36111e-015 -2.18663e-015
lhumerus -36.7604 7.46297 77.0252
lradius 37.4547
lwrist -5.45474
lhand -17.3472 24.2312
lfingers 7.12502
lthumb 8.90028 54.0235
rfemur -5.93292 -0.516311 16.4065
rtibia 31.071
rfoot -22.5285 6.98353
rtoes -10.5913
lfemur -9.0565 -1.25965 -17.6123
ltibia 38.5911
lfoot -20.9327 -22.909
ltoes -12.0575
484
root 12.3669 17.6953 13.2975 -3.17768 181.804 0.648917
lowerback 12.6728 1.54692 -0.352679
upperback 0.956029 1.8685 -0.0707186
thorax -6.11099 0.86767 -0.200169
lowerneck -18.479 -5.11215 -12.5593
upperneck 29.8423 -8.10333 9.20031
head 14.2029 -4.3244 4.28501
rclavicle -1.18401e-014 2.28602e-015
rhumerus -39.2037 -19.8617 -68.6447
rradius 36.8091
rwrist 2.33153
rhand -19.0836 9.82702
rfingers 7.12502
rthumb 7.22441 -20.0297
lclavicle -1.18401e-014 2.28602e-015
lhumerus -36.9161 6.92012 77.5769
lradius 37.5535
lwrist -4.71791
lhand -17.3078 22.2019
lfingers 7.12502
lthumb 8.93829 51.9926
rfemur -6.22522 -0.746816 16.4754
rtibia 31.6897
rfoot -22.8135 7.14089
rtoes -9.99465
lfemur -8.95921 -0.2534 -18.6715
ltibia 38.5399
lfoot -21.1621 -23.2447
ltoes -28.8469
485
root 12.4366 17.6783 13.2893 -3.17858 181.88 0.612593
lowerback 12.5567 1.54722 -0.44721
upperback 0.945102 1.86447 0.0108155
thorax -6.06367 0.870733 -0.0577443
lowerneck -18.4345 -5.12981 -12.5163
upperneck 29.847 -8.13181 9.12889
head 14.1932 -4.34357 4.24264
rclavicle -1.00697e-014 3.67752e-015
rhumerus -39.2877 -19.779 -68.2468
rradius 36.7908
rwrist 2.28438
rhand -19.1665 9.79187
rfingers 7.12502
rthumb 7.14445 -20.0675
lclavicle -1.00697e-014 3.67752e-015
lhumerus -36.9944 6.57033 78.0588
lradius 37.6762
lwrist -4.36975
lhand -16.9793 21.0974
lfingers 7.12502
lthumb 9.25534 50.8743
rfemur -6.45255 -0.776449 16.6925
rtibia 32.2542
rfoot -23.0288 7.09589
rtoes -9.17085
lfemur -8.84991 0.559421 -19.5588
ltibia 38.3959
lfoot -21.7686 -23.791
ltoes -11.9944
486
root 12.505 17.66 13.2829 -3.17358 182.06 0.660874
lowerback 12.4158 1.49328 -0.435574
upperback 0.953777 1.80198 0.0843274
thorax -5.97761 0.841852 0.0275077
lowerneck -18.48 -5.12139 -12.2988
upperneck 29.9009 -8.13421 8.94752
head 14.2059 -4.3434 4.12945
rclavicle 1.62631e-014 -9.93923e-016
rhumerus -39.3279 -19.8217 -67.8962
rradius 36.7233
rwrist 2.1362
rhand -19.2223 9.07784
rfingers 7.12502
rthumb 7.09055 -20.7834
lclavicle 1.62631e-014 -9.93923e-016
lhumerus -37.1057 6.22425 78.4619
lradius 37.9292
lwrist -4.2045
lhand -16.893 21.4574
lfingers 7.12502
lthumb 9.33862 51.2305
rfemur -6.65474 -0.864234 16.9837
rtibia 32.763
rfoot -23.2523 7.03824
rtoes -8.19483
lfemur -8.70116 1.12845 -20.2953
ltibia 38.148
lfoot -21.3812 -24.3963
ltoes -10.1777
487
root 12.5712 17.6424 13.274 -3.13879 182.299 0.701595
lowerback 12.2929 1.39925 -0.495809
upperback 0.885819 1.68253 0.181265
thorax -5.98495 0.789275 0.185597
lowerneck -18.4329 -5.10157 -12.199
upperneck 30.0064 -8.17457 8.91388
head 14.24 -4.36647 4.09211
rclavicle 8.97016e-015 2.28602e-015
rhumerus -39.4315 -19.7625 -67.5344
rradius 36.5828
rwrist 1.93253
rhand -19.0663 7.63457
rfingers 7.12502
rthumb 7.24118 -22.2215
lclavicle 8.97016e-015 2.28602e-015
lhumerus -37.365 5.97109 78.839
lradius 38.1763
lwrist -4.1656
lhand -16.9055 21.9204
lfingers 7.12502
lthumb 9.3265 51.6941
rfemur -6.86996 -1.20415 17.2265
rtibia 33.2475
rfoot -23.5927 7.0945
rtoes -7.82141
lfemur -8.55124 1.45248 -21.0012
ltibia 37.779
lfoot -20.5204 -24.8903
ltoes -7.7527
488
root 12.6376 17.6241 13.2629 -3.19786 182.587 0.718458
lowerback 12.1875 1.28499 -0.632208
upperback 0.896898 1.52183 0.309617
thorax -5.92018 0.716179 0.427238
lowerneck -18.3241 -5.09758 -12.3066
upperneck 29.9472 -8.20085 9.06136
head 14.207 -4.37681 4.16654
rclavicle -3.39922e-014 -1.83876e-015
rhumerus -39.3513 -19.6962 -67.178
rradius 36.3165
rwrist 2.16194
rhand -18.7663 7.03349
rfingers 7.12502
rthumb 7.53068 -22.8125
lclavicle -3.39922e-014 -1.83876e-015
lhumerus -37.4835 5.83747 79.2305
lradius 38.2579
lwrist -4.14549
lhand -17.032 21.5141
lfingers 7.12502
lthumb 9.20448 51.2932
rfemur -6.95933 -1.6152 17.4318
rtibia 33.7218
rfoot -23.9285 7.21064
rtoes -9.24444
lfemur -8.25283 1.62199 -21.672
ltibia 37.3002
lfoot -19.6793 -25.1797
ltoes -4.0239
489
root 12.7051 17.6138 13.2493 -3.2286 182.919 0.899229
lowerback 11.9931 1.1663 -0.626167
upperback 0.951915 1.37558 0.48237
thorax -5.75577 0.645696 0.634143
lowerneck -18.3389 -5.12617 -12.4065
upperneck 29.908 -8.24882 9.19505
head 14.2126 -4.39032 4.22924
rclavicle -5.33768e-015 6.13748e-015
rhumerus -39.2276 -19.7484 -66.7794
rradius 36.0589
rwrist 2.6008
rhand -18.6485 7.26469
rfingers 7.12502
rthumb 7.6444 -22.5772
lclavicle -5.33768e-015 6.13748e-015
lhumerus -37.5078 5.6054 79.6777
lradius 38.4037
lwrist -4.03842
lhand -17.0194 21.4981
lfingers 7.12502
lthumb 9.21663 51.2767
rfemur -7.09669 -2.0984 17.8249
rtibia 34.1394
rfoot -24.1889 7.26151
rtoes -9.86364
lfemur -7.9297 1.76534 -22.0666
ltibia 36.7735
lfoot -18.9252 -25.0823
ltoes 0.821551
490
root 12.773 17.6142 13.2327 -3.21403 183.228 1.04298
lowerback 11.7793 1.07243 -0.689877
upperback 0.964946 1.25331 0.615821
thorax -5.62506 0.589369 0.833787
lowerneck -18.3109 -5.16401 -12.4036
upperneck 29.8421 -8.34081 9.30178
head 14.1966 -4.41578 4.25413
rclavicle -2.72164e-015 7.95139e-015
rhumerus -39.275 -20.1122 -66.3103
rradius 35.8811
rwrist 3.14554
rhand -18.5892 7.348
rfingers 7.12502
rthumb 7.70171 -22.4917
lclavicle -2.72164e-015 7.95139e-015
lhumerus -37.6057 5.23887 80.0828
lradius 38.6151
lwrist -3.8585
lhand -16.8963 21.9648
lfingers 7.12502
lthumb 9.3354 51.7381
rfemur -7.25884 -2.56201 18.1819
rtibia 34.3879
rfoot -24.2381 7.39731
rtoes -6.88156
lfemur -7.62921 1.92984 -22.4197
ltibia 36.338
lfoot -18.4175 -24.1473
ltoes 5.70488
